<svg width="32" height="32" viewBox="0 0 32 32" fill="none" xmlns="http://www.w3.org/2000/svg">
<circle cx="16" cy="16" r="16" fill="#2A6028"/>
<path d="M9.07617 20C8.8418 20 8.72461 19.8828 8.72461 19.6484V14.1992C8.72461 13.9648 8.8418 13.8477 9.07617 13.8477H10.002C10.2363 13.8477 10.3535 13.9648 10.3535 14.1992V14.5391H10.377C10.4902 14.2891 10.6816 14.0918 10.9512 13.9473C11.2207 13.8027 11.4727 13.7305 11.707 13.7305C12.1758 13.7305 12.5391 13.8398 12.7969 14.0586C13.0586 14.2773 13.2383 14.5215 13.3359 14.791H13.3594C13.6992 14.3496 14.0059 14.0625 14.2793 13.9297C14.5566 13.7969 14.9102 13.7305 15.3398 13.7305C15.918 13.7305 16.4043 13.9219 16.7988 14.3047C17.1973 14.6875 17.3965 15.3867 17.3965 16.4023V19.6484C17.3965 19.8828 17.2793 20 17.0449 20H16.1074C15.873 20 15.7559 19.8828 15.7559 19.6484V16.8242C15.7559 15.9727 15.6973 15.4355 15.5801 15.2129C15.4668 14.9902 15.2637 14.8789 14.9707 14.8789C14.6973 14.8789 14.4473 15.0391 14.2207 15.3594C13.9941 15.6797 13.8809 16.3398 13.8809 17.3398V19.6484C13.8809 19.8828 13.7637 20 13.5293 20H12.5918C12.3574 20 12.2402 19.8828 12.2402 19.6484V16.8242C12.2402 15.9727 12.1816 15.4355 12.0645 15.2129C11.9512 14.9902 11.748 14.8789 11.4551 14.8789C11.1816 14.8789 10.9316 15.0391 10.7051 15.3594C10.4785 15.6758 10.3652 16.3359 10.3652 17.3398V19.6484C10.3652 19.8828 10.248 20 10.0137 20H9.07617ZM19.5293 20C19.2559 20 19.1191 19.8535 19.1191 19.5605V12.0371C19.1191 11.7441 19.2559 11.5977 19.5293 11.5977H24.1641C24.457 11.5977 24.6035 11.7246 24.6035 11.9785V12.6699C24.6035 12.9238 24.457 13.0508 24.1641 13.0508H20.8301V15.0898H23.6836C23.9766 15.0898 24.123 15.2168 24.123 15.4707V16.1621C24.123 16.416 23.9766 16.543 23.6836 16.543H20.8301V19.5605C20.8301 19.8535 20.6934 20 20.4199 20H19.5293Z" fill="white"/>
</svg>
