<svg width="71" height="25" viewBox="0 0 71 25" fill="none" xmlns="http://www.w3.org/2000/svg">
<rect width="71" height="25" rx="8" fill="#2A6028"/>
<path d="M9.46238 18C9.16941 18 9.02293 17.8535 9.02293 17.5605V10.749C9.02293 10.4561 9.16941 10.3096 9.46238 10.3096H10.6196C10.9126 10.3096 11.0591 10.4561 11.0591 10.749V11.1738H11.0884C11.23 10.8613 11.4692 10.6147 11.8061 10.4341C12.143 10.2534 12.458 10.1631 12.751 10.1631C13.3369 10.1631 13.791 10.2998 14.1133 10.5732C14.4404 10.8467 14.665 11.1519 14.7871 11.4888H14.8164C15.2412 10.937 15.6245 10.5781 15.9663 10.4121C16.313 10.2461 16.7549 10.1631 17.292 10.1631C18.0146 10.1631 18.6225 10.4023 19.1157 10.8809C19.6137 11.3594 19.8628 12.2334 19.8628 13.5029V17.5605C19.8628 17.8535 19.7163 18 19.4233 18H18.2514C17.9585 18 17.812 17.8535 17.812 17.5605V14.0303C17.812 12.9658 17.7387 12.2944 17.5923 12.0161C17.4507 11.7378 17.1968 11.5986 16.8305 11.5986C16.4887 11.5986 16.1762 11.7988 15.893 12.1992C15.6098 12.5996 15.4682 13.4248 15.4682 14.6748V17.5605C15.4682 17.8535 15.3218 18 15.0288 18H13.8569C13.5639 18 13.4175 17.8535 13.4175 17.5605V14.0303C13.4175 12.9658 13.3442 12.2944 13.1977 12.0161C13.0561 11.7378 12.8022 11.5986 12.436 11.5986C12.0942 11.5986 11.7817 11.7988 11.4985 12.1992C11.2153 12.5947 11.0737 13.4199 11.0737 14.6748V17.5605C11.0737 17.8535 10.9272 18 10.6343 18H9.46238ZM21.3642 10.8809C21.2324 10.5 21.313 10.3096 21.6059 10.3096H22.917C23.1416 10.3096 23.2881 10.4341 23.3564 10.6831L24.4624 14.7773C24.5161 14.9678 24.5625 15.2144 24.6015 15.5171C24.6455 15.8149 24.6675 16.0054 24.6675 16.0884H24.7114C24.77 15.8296 24.8115 15.6245 24.8359 15.4731C24.8652 15.3169 24.9409 15.0166 25.063 14.5723L26.1103 10.6831C26.1787 10.4341 26.3252 10.3096 26.5498 10.3096H27.8608C28.1489 10.3096 28.2295 10.5 28.1025 10.8809L25.6343 18.3076C25.3462 19.1768 24.9922 19.8555 24.5722 20.3438C24.1523 20.832 23.5688 21.0762 22.8218 21.0762C22.4116 21.0762 22.0454 21.042 21.7231 20.9736C21.5376 20.9346 21.4668 20.8076 21.5107 20.5928L21.6719 19.7871C21.7158 19.5771 21.8403 19.5039 22.0454 19.5674C22.1968 19.6162 22.3384 19.6406 22.4702 19.6406C22.8657 19.6406 23.166 19.4526 23.3711 19.0767C23.581 18.7007 23.7202 18.3784 23.7886 18.1099L23.8105 18L21.3642 10.8809ZM29.7798 18C29.438 18 29.2671 17.8169 29.2671 17.4507V8.04639C29.2671 7.68018 29.438 7.49707 29.7798 7.49707H35.5732C35.9394 7.49707 36.1225 7.65576 36.1225 7.97314V8.8374C36.1225 9.15479 35.9394 9.31348 35.5732 9.31348H31.4057V11.8623H34.9726C35.3388 11.8623 35.5219 12.021 35.5219 12.3384V13.2026C35.5219 13.52 35.3388 13.6787 34.9726 13.6787H31.4057V17.4507C31.4057 17.8169 31.2348 18 30.893 18H29.7798ZM37.6899 14.8066V10.749C37.6899 10.4561 37.8364 10.3096 38.1294 10.3096H39.3012C39.5942 10.3096 39.7407 10.4561 39.7407 10.749V14.2793C39.7407 15.3438 39.8139 16.0151 39.9604 16.2935C40.1069 16.5718 40.4145 16.7109 40.8833 16.7109C41.3813 16.7109 41.7597 16.5132 42.0185 16.1177C42.2773 15.7173 42.4067 14.8896 42.4067 13.6348V10.749C42.4067 10.4561 42.5532 10.3096 42.8462 10.3096H44.018C44.311 10.3096 44.4575 10.4561 44.4575 10.749V17.5605C44.4575 17.8535 44.311 18 44.018 18H42.8608C42.5678 18 42.4214 17.8535 42.4214 17.5605V17.1357H42.3921C42.1675 17.5215 41.8818 17.7876 41.5351 17.9341C41.1885 18.0757 40.7783 18.1465 40.3047 18.1465C39.5576 18.1465 38.935 17.9072 38.437 17.4287C37.9389 16.9502 37.6899 16.0762 37.6899 14.8066ZM46.8891 18C46.5962 18 46.4497 17.8535 46.4497 17.5605V10.749C46.4497 10.4561 46.5962 10.3096 46.8891 10.3096H48.0464C48.3393 10.3096 48.4858 10.4561 48.4858 10.749V11.1738H48.5151C48.7397 10.7881 49.0254 10.5244 49.372 10.3828C49.7187 10.2363 50.1362 10.1631 50.6245 10.1631C51.3862 10.1631 52.0161 10.4023 52.5141 10.8809C53.0122 11.3594 53.2612 12.2334 53.2612 13.5029V17.5605C53.2612 17.8535 53.1147 18 52.8218 18H51.6499C51.3569 18 51.2104 17.8535 51.2104 17.5605V14.0303C51.2104 12.9658 51.1372 12.2944 50.9907 12.0161C50.8442 11.7378 50.5293 11.5986 50.0459 11.5986C49.5332 11.5986 49.1474 11.7988 48.8886 12.1992C48.6299 12.5947 48.5005 13.4199 48.5005 14.6748V17.5605C48.5005 17.8535 48.354 18 48.061 18H46.8891ZM54.8286 14.1548C54.8286 13.0806 55.0605 12.1479 55.5244 11.3569C55.9931 10.561 56.8012 10.1631 57.9487 10.1631C58.3882 10.1631 58.7641 10.2266 59.0766 10.3535C59.3891 10.4805 59.6723 10.7539 59.9262 11.1738H59.9555C59.936 10.9785 59.9262 10.7832 59.9262 10.5879V7.62891C59.9262 7.33594 60.0727 7.18945 60.3657 7.18945H61.5376C61.8305 7.18945 61.977 7.33594 61.977 7.62891V17.5605C61.977 17.8535 61.8305 18 61.5376 18H60.3803C60.1362 18 60.0044 17.8535 59.9848 17.5605L59.9555 17.1357H59.9262C59.6723 17.5557 59.3891 17.8291 59.0766 17.9561C58.7641 18.083 58.3882 18.1465 57.9487 18.1465C56.8012 18.1465 55.9931 17.751 55.5244 16.96C55.0605 16.1641 54.8286 15.229 54.8286 14.1548ZM56.9966 14.1548C56.9966 14.936 57.0967 15.5586 57.2969 16.0225C57.5019 16.4814 57.9341 16.7109 58.5932 16.7109C58.9594 16.7109 59.2719 16.5059 59.5307 16.0957C59.7944 15.6807 59.9262 15.1436 59.9262 14.4844V13.8252C59.9262 13.166 59.7944 12.6313 59.5307 12.2212C59.2719 11.8062 58.9594 11.5986 58.5932 11.5986C57.9341 11.5986 57.5019 11.8306 57.2969 12.2944C57.0967 12.7534 56.9966 13.3735 56.9966 14.1548Z" fill="white"/>
</svg>
